<svg xmlns="http://www.w3.org/2000/svg" width="10.14" height="8.235" viewBox="0 0 10.14 8.235">
  <path id="fa-twitter" d="M764.737,5618.228a2.02,2.02,0,0,0,.914-1.145,4.112,4.112,0,0,1-1.319.5,2.079,2.079,0,0,0-3.6,1.422,2.292,2.292,0,0,0,.051.476,5.793,5.793,0,0,1-2.39-.641,5.889,5.889,0,0,1-1.895-1.535,2.083,2.083,0,0,0-.032,2.04,2.072,2.072,0,0,0,.675.74,2.051,2.051,0,0,1-.939-.265v.027a2.007,2.007,0,0,0,.473,1.322,2.047,2.047,0,0,0,1.193.717,2.143,2.143,0,0,1-.547.071,2.634,2.634,0,0,1-.392-.033,2.083,2.083,0,0,0,1.943,1.441,4.068,4.068,0,0,1-2.58.888,4.347,4.347,0,0,1-.5-.026,5.767,5.767,0,0,0,3.191.933,6.073,6.073,0,0,0,2.078-.351,5.292,5.292,0,0,0,1.66-.938,6.281,6.281,0,0,0,1.187-1.354,6.057,6.057,0,0,0,.743-1.6,5.9,5.9,0,0,0,.244-1.669c0-.12,0-.21-.006-.271a4.35,4.35,0,0,0,1.042-1.075,4.137,4.137,0,0,1-1.2.322Z" transform="translate(-755.794 -5616.929)" fill="#fff"/>
</svg>
