<svg xmlns="http://www.w3.org/2000/svg" width="10.14" height="8.235"><path d="M8.943 1.299A2.02 2.02 0 009.857.154a4.112 4.112 0 01-1.319.5 2.079 2.079 0 00-3.6 1.422 2.292 2.292 0 00.051.476 5.793 5.793 0 01-2.39-.641A5.889 5.889 0 01.704.376a2.083 2.083 0 00-.032 2.04 2.072 2.072 0 00.675.74 2.051 2.051 0 01-.939-.265v.027A2.007 2.007 0 00.881 4.24a2.047 2.047 0 001.193.717 2.143 2.143 0 01-.547.071 2.634 2.634 0 01-.392-.033 2.083 2.083 0 001.943 1.441 4.068 4.068 0 01-2.58.888 4.347 4.347 0 01-.5-.026 5.767 5.767 0 003.191.933 6.073 6.073 0 002.078-.351 5.292 5.292 0 001.66-.938 6.281 6.281 0 001.187-1.354 6.057 6.057 0 00.743-1.6 5.9 5.9 0 00.244-1.669c0-.12 0-.21-.006-.271A4.35 4.35 0 0010.137.973a4.137 4.137 0 01-1.2.322z" fill="#fff"/></svg>